<?xml version="1.0" encoding="UTF-8" standalone="no"?>
<!DOCTYPE svg PUBLIC "-//W3C//DTD SVG 1.1//EN" "http://www.w3.org/Graphics/SVG/1.1/DTD/svg11.dtd">
<svg width="1500px" height="1500px" viewBox="0 0 1500 1500" version="1.1" xmlns="http://www.w3.org/2000/svg" xmlns:xlink="http://www.w3.org/1999/xlink" xml:space="preserve" xmlns:serif="http://www.serif.com/" style="fill-rule:evenodd;clip-rule:evenodd;stroke-linejoin:round;stroke-miterlimit:2;">
    <g transform="matrix(1.1235,0,0,1.1235,-93.673,-97.2996)">
        <path d="M725.334,99.417C730.141,98.502 737.438,98.182 747.5,98.446C771.603,99.078 771.521,99.049 831.5,127.775C845.25,134.36 864.15,143.459 873.5,147.995C882.85,152.531 1172.37,292 1172.61,292C1172.86,292 1186.21,298.487 1202.28,306.416C1235,322.559 1243,327.974 1254.22,341.568C1269.26,359.791 1273.07,369.193 1282.43,411.059C1284.33,419.552 1288.83,439.325 1292.42,455C1296.03,470.675 1367.94,786.05 1372.9,807.5C1384.76,858.779 1385.34,862.271 1384.71,879C1384.08,896.066 1381.64,905.925 1374.44,920.5C1368.78,931.978 1363.92,938.973 1347.92,958.692C1337.48,971.559 1127.33,1235.15 1111.12,1255.5C1063.74,1314.98 1062.72,1316.24 1057.9,1321.1C1047.4,1331.67 1031.38,1341.8 1017.95,1346.36C1000.39,1352.32 1015.73,1352 743.119,1351.98C500.59,1351.97 493.241,1351.91 484.381,1350.04C466.963,1346.37 451.267,1338.6 436.736,1326.47C430.088,1320.92 421.486,1310.39 337.509,1205C305.904,1165.34 263.668,1112.41 187.474,1017C155.631,977.125 127.004,940.916 123.858,936.535C110.013,917.252 104,898.497 104,874.596C104,859.555 103.742,860.976 116.991,803C122.008,781.045 192.86,470.806 193.524,467.876C197.684,449.519 203.588,423.475 206.643,410C215.113,372.647 218.953,362.373 230.002,347.5C244.632,327.809 253.786,321.742 306.78,296.614C316.526,291.992 583.529,163.488 615.5,148.007C632.938,139.562 637.818,137.219 680,117.032C705.785,104.692 713.622,101.646 725.334,99.417ZM727.434,168.201C717.01,170.185 710.034,172.897 687.083,183.88C649.538,201.848 645.194,203.934 629.673,211.45C601.217,225.23 363.563,339.608 354.888,343.722C307.72,366.088 299.572,371.488 286.55,389.015C276.715,402.253 273.298,411.397 265.759,444.645C263.039,456.638 257.784,479.82 254.082,496.159C253.491,498.767 190.427,774.904 185.961,794.445C174.169,846.048 174.398,844.784 174.398,858.171C174.398,879.445 179.75,896.138 192.073,913.302C194.874,917.201 220.354,949.43 248.697,984.922C316.515,1069.85 354.109,1116.95 382.24,1152.26C456.986,1246.06 464.642,1255.44 470.559,1260.38C483.493,1271.17 497.464,1278.08 512.967,1281.36C520.853,1283.02 527.394,1283.07 743.264,1283.08C985.907,1283.1 972.26,1283.38 987.882,1278.08C999.84,1274.02 1014.1,1265 1023.44,1255.59C1027.73,1251.27 1028.64,1250.15 1070.81,1197.21C1085.24,1179.09 1272.29,944.476 1281.58,933.023C1295.82,915.472 1300.15,909.246 1305.19,899.029C1311.6,886.057 1313.77,877.281 1314.33,862.091C1314.89,847.201 1314.38,844.093 1303.82,798.451C1299.41,779.358 1235.39,498.65 1232.19,484.698C1228.99,470.746 1224.98,453.147 1223.29,445.587C1214.96,408.323 1211.57,399.955 1198.18,383.735C1188.2,371.635 1181.08,366.815 1151.95,352.447C1137.65,345.389 1125.77,339.615 1125.55,339.615C1125.33,339.615 867.636,215.477 859.313,211.44C850.991,207.402 834.169,199.303 821.93,193.442C768.544,167.874 768.617,167.9 747.164,167.337C738.208,167.102 731.713,167.387 727.434,168.201Z" style="fill:white;"/>
    </g>
    <g transform="matrix(1,0,0,1,2.44628,-44.3305)">
        <g id="Layer1" transform="matrix(1.29451,0,0,1.25669,-307.249,-240.83)">
            <g transform="matrix(0.772493,0,0,0.79574,235.458,226.913)">
                <path d="M900.195,558.826C871.923,533.28 837.424,514.499 799.263,505.046L803.7,436.441C859.206,447.82 909.202,474.394 949.144,511.619L900.195,558.826Z" style="fill:white;"/>
            </g>
            <g transform="matrix(0.772493,0,0,0.79574,235.458,226.913)">
                <path d="M977.49,745.827C977.705,741.708 977.814,737.562 977.814,733.39C977.814,701.833 971.587,671.72 960.296,644.212L1017.22,605.014C1035.49,644.005 1045.7,687.514 1045.7,733.39C1045.7,741.54 1045.38,749.616 1044.75,757.605L977.49,745.827Z" style="fill:white;"/>
            </g>
            <g transform="matrix(0.772493,0,0,0.79574,235.458,226.913)">
                <path d="M699.413,964.648C713.417,967.252 727.856,968.613 742.61,968.613C759.562,968.613 776.098,966.816 792.036,963.401L815.809,1027.59C792.364,1033.42 767.845,1036.51 742.61,1036.51C718.565,1036.51 695.172,1033.7 672.738,1028.4L699.413,964.648Z" style="fill:white;"/>
            </g>
            <g transform="matrix(0.772493,0,0,0.79574,235.458,226.913)">
                <path d="M527.853,637.384C514.714,666.706 507.405,699.201 507.405,733.39C507.405,735.06 507.422,736.726 507.457,738.388L439.88,748.376C439.638,743.411 439.515,738.414 439.515,733.39C439.515,685.61 450.593,640.398 470.317,600.184L527.853,637.384Z" style="fill:white;"/>
            </g>
            <g transform="matrix(0.772493,0,0,0.79574,235.458,226.913)">
                <path d="M538.735,509.169C579.22,472.325 629.707,446.287 685.62,435.63L692.945,503.429C653.95,511.825 618.535,529.902 589.344,555.017L538.735,509.169Z" style="fill:white;"/>
            </g>
            <g transform="matrix(0.772493,0,0,0.79574,235.458,226.913)">
                <path d="M533.387,840.894C550.375,873.867 574.929,902.315 604.747,923.939L568.571,981.523C525.499,951.237 490.653,910.024 468.077,861.926L533.387,840.894Z" style="fill:white;"/>
            </g>
            <g transform="matrix(0.772493,0,0,0.79574,235.458,226.913)">
                <path d="M887.434,918.692C912.923,898.733 934.196,873.632 949.688,844.957L1014.77,866.861C993.016,911.105 960.789,949.287 921.332,978.162L887.434,918.692Z" style="fill:white;"/>
            </g>
        </g>
        <g transform="matrix(1,0,0,1,-5.3409,1.19498)">
            <path d="M728.704,691.472C693.471,698.827 667.209,725.781 660.452,761.525C656.57,782.064 661.566,806.049 673.452,823.927C687.728,845.401 710.437,859.238 736.215,862.17C779.317,867.071 818.666,839.401 829.606,796.5C831.885,787.562 832.104,785.12 831.669,773.5C831.118,758.807 829.002,749.998 823.262,738.5C812.06,716.066 792.556,699.747 768.821,692.95C759.22,690.201 738.459,689.436 728.704,691.472" style="fill:white;"/>
        </g>
    </g>
    <g transform="matrix(1,0,0,1,-6.84739,12.438)">
        <g transform="matrix(1.09433,0,0,1.09433,-61.6806,-117.917)">
            <g transform="matrix(1.15499,0.0288533,-0.0249736,0.999688,-95.8962,-62.4313)">
                <path d="M765.5,408.569C743.234,411.824 719.454,412.411 692.612,410.368L684.724,409.767C684.724,409.767 698.218,537.094 700.042,554.5C700.619,560 712.691,674.81 714.991,676.85C719.664,680.996 731.821,683.941 743.5,683.986C751.905,684.018 761.731,682.095 768.766,674.83C770.24,673.307 775.07,549.395 774.852,549.041C774.633,548.687 781.032,407 781.032,407C781.032,407 770.45,407.845 765.5,408.569" style="fill:white;"/>
            </g>
            <g transform="matrix(0.718886,-0.860476,0.767421,0.641143,-420.191,891.348)">
                <path d="M765.5,408.569C743.234,411.824 719.454,412.411 692.612,410.368L684.724,409.767C684.724,409.767 698.218,537.094 700.042,554.5C700.619,560 712.691,674.81 714.991,676.85C719.664,680.996 731.821,683.941 743.5,683.986C751.905,684.018 761.731,682.095 768.766,674.83C770.24,673.307 775.07,549.395 774.852,549.041C774.633,548.687 781.032,407 781.032,407C781.032,407 770.45,407.845 765.5,408.569" style="fill:white;"/>
            </g>
            <g transform="matrix(-0.216282,-1.11421,0.981676,-0.190556,115.019,1754.48)">
                <path d="M765.5,408.569C743.234,411.824 719.454,412.411 692.612,410.368L684.724,409.767C684.724,409.767 698.218,537.094 700.042,554.5C700.619,560 712.691,674.81 714.991,676.85C719.664,680.996 731.821,683.941 743.5,683.986C751.905,684.018 761.731,682.095 768.766,674.83C770.24,673.307 775.07,549.395 774.852,549.041C774.633,548.687 781.032,407 781.032,407C781.032,407 770.45,407.845 765.5,408.569" style="fill:white;"/>
            </g>
            <g transform="matrix(0.229122,-1.07498,-0.978031,-0.208459,1356.46,1741.84)">
                <path d="M765.5,408.569C743.234,411.824 719.454,412.411 692.612,410.368L684.724,409.767C684.724,409.767 698.218,537.094 700.042,554.5C700.619,560 712.691,674.81 714.991,676.85C719.664,680.996 731.821,683.941 743.5,683.986C751.905,684.018 761.731,682.095 768.766,674.83C770.24,673.307 775.07,549.395 774.852,549.041C774.633,548.687 781.032,407 781.032,407C781.032,407 770.45,407.845 765.5,408.569" style="fill:white;"/>
            </g>
            <g transform="matrix(1.03209,-0.531346,-0.457727,-0.889093,344.795,1888.56)">
                <path d="M765.5,408.569C743.234,411.824 719.454,412.411 692.612,410.368L684.724,409.767C684.724,409.767 698.218,537.094 700.042,554.5C700.619,560 712.691,674.81 714.991,676.85C719.664,680.996 731.821,683.941 743.5,683.986C751.905,684.018 761.731,682.095 768.766,674.83C770.24,673.307 775.07,549.395 774.852,549.041C774.633,548.687 781.032,407 781.032,407C781.032,407 770.45,407.845 765.5,408.569" style="fill:white;"/>
            </g>
            <g transform="matrix(1.01666,0.477682,0.425253,-0.905075,-350.255,1153.76)">
                <path d="M765.5,408.569C743.234,411.824 719.454,412.411 692.612,410.368L684.724,409.767C684.724,409.767 698.218,537.094 700.042,554.5C700.619,560 712.691,674.81 714.991,676.85C719.664,680.996 731.821,683.941 743.5,683.986C751.905,684.018 761.731,682.095 768.766,674.83C770.24,673.307 775.07,549.395 774.852,549.041C774.633,548.687 781.032,407 781.032,407C781.032,407 770.45,407.845 765.5,408.569" style="fill:white;"/>
            </g>
            <g transform="matrix(0.671807,0.901263,-0.801764,0.59764,897.227,-378.487)">
                <path d="M765.5,408.569C743.234,411.824 719.454,412.411 692.612,410.368L684.724,409.767C684.724,409.767 698.218,537.094 700.042,554.5C700.619,560 712.691,674.81 714.991,676.85C719.664,680.996 731.821,683.941 743.5,683.986C751.905,684.018 761.731,682.095 768.766,674.83C770.24,673.307 775.07,549.395 774.852,549.041C774.633,548.687 781.032,407 781.032,407C781.032,407 770.45,407.845 765.5,408.569" style="fill:white;"/>
            </g>
        </g>
        <g transform="matrix(1.09433,0,0,1.09433,-61.6806,-117.917)">
            <g transform="matrix(0.999688,0.0249736,-0.0249736,0.999688,17.0817,-59.6089)">
                <path d="M712.236,265.013C677.523,274.109 654.306,302.814 653.68,337.413L653.5,347.325L656.5,348.164C667.592,351.267 684.424,352.435 718.5,352.467C760.618,352.507 783.065,350.437 802,344.767L806.5,343.419L806.798,336.617C807.377,323.383 800.444,304.264 790.528,291.751C781.184,279.96 764.722,269.372 749.02,265.056C739.094,262.328 722.559,262.308 712.236,265.013M802.036,354.678C798.051,355.646 780.91,359.675 772,360.911C742.877,364.951 705.027,364.822 667.5,360.555C661.45,359.868 656.343,359.431 656.15,359.585C655.495,360.111 658.241,367.483 661.655,374.365C667.362,385.87 678.398,398.68 684.65,401.057C689.788,403.01 721.538,404.167 738.913,403.034C761.037,401.592 779.193,398.78 782.332,396.311C792.123,388.609 803.489,370.212 805.567,357.38C805.974,354.865 805.138,358.054 805.429,353.695" style="fill:white;"/>
            </g>
            <g transform="matrix(0.641143,-0.767421,0.767421,0.641143,-361.629,821.251)">
                <path d="M712.236,265.013C677.523,274.109 654.306,302.814 653.68,337.413L653.5,347.325L656.5,348.164C667.592,351.267 684.424,352.435 718.5,352.467C760.618,352.507 783.065,350.437 802,344.767L806.5,343.419L806.798,336.617C807.377,323.383 800.444,304.264 790.528,291.751C781.184,279.96 764.722,269.372 749.02,265.056C739.094,262.328 722.559,262.308 712.236,265.013M802.036,354.678C798.051,355.646 780.91,359.675 772,360.911C742.877,364.951 705.027,364.822 667.5,360.555C661.45,359.868 656.343,359.431 656.15,359.585C655.495,360.111 658.241,367.483 661.655,374.365C667.362,385.87 678.398,398.68 684.65,401.057C689.788,403.01 721.538,404.167 738.913,403.034C761.037,401.592 779.193,398.78 782.332,396.311C792.123,388.609 803.489,370.212 805.567,357.38C805.974,354.865 806.822,368.533 805.429,353.695" style="fill:white;"/>
            </g>
            <g transform="matrix(-0.190556,-0.981676,0.981676,-0.190556,96.4441,1658.79)">
                <path d="M712.236,265.013C677.523,274.109 654.306,302.814 653.68,337.413L653.5,347.325L656.5,348.164C667.592,351.267 684.424,352.435 718.5,352.467C760.618,352.507 783.065,350.437 802,344.767L806.5,343.419L806.798,336.617C807.377,323.383 800.444,304.264 790.528,291.751C781.184,279.96 764.722,269.372 749.02,265.056C739.094,262.328 722.559,262.308 712.236,265.013M802.036,354.678C798.051,355.646 780.91,359.675 772,360.911C742.877,364.951 705.027,364.822 667.5,360.555C661.45,359.868 656.343,359.431 656.15,359.585C655.495,360.111 658.241,367.483 661.655,374.365C667.362,385.87 678.398,398.68 684.65,401.057C689.788,403.01 721.538,404.167 738.913,403.034C761.037,401.592 779.193,398.78 782.332,396.311C792.123,388.609 803.489,370.212 805.567,357.38C805.974,354.865 805.788,359.087 805.429,353.695" style="fill:white;"/>
            </g>
            <g transform="matrix(0.208459,-0.978031,-0.978031,-0.208459,1371.5,1671.29)">
                <path d="M712.236,265.013C677.523,274.109 654.306,302.814 653.68,337.413L653.5,347.325L656.5,348.164C667.592,351.267 684.424,352.435 718.5,352.467C760.618,352.507 783.065,350.437 802,344.767L806.5,343.419L806.798,336.617C807.377,323.383 800.444,304.264 790.528,291.751C781.184,279.96 764.722,269.372 749.02,265.056C739.094,262.328 722.559,262.308 712.236,265.013M802.036,354.678C798.051,355.646 780.91,359.675 772,360.911C742.877,364.951 705.027,364.822 667.5,360.555C661.45,359.868 656.343,359.431 656.15,359.585C655.495,360.111 658.241,367.483 661.655,374.365C667.362,385.87 678.398,398.68 684.65,401.057C689.788,403.01 721.538,404.167 738.913,403.034C761.037,401.592 779.193,398.78 782.332,396.311C792.123,388.609 803.489,370.212 805.567,357.38C805.974,354.865 805.226,354.985 805.429,353.695" style="fill:white;"/>
            </g>
            <g transform="matrix(0.889093,-0.457727,-0.457727,-0.889093,448.565,1835.14)">
                <path d="M712.236,265.013C677.523,274.109 654.306,302.814 653.68,337.413L653.5,347.325L656.5,348.164C667.592,351.267 684.424,352.435 718.5,352.467C760.618,352.507 783.065,350.437 802,344.767L806.5,343.419L806.798,336.617C807.377,323.383 800.444,304.264 790.528,291.751C781.184,279.96 764.722,269.372 749.02,265.056C739.094,262.328 722.559,262.308 712.236,265.013M802.036,354.678C798.051,355.646 780.91,359.675 772,360.911C742.877,364.951 705.027,364.822 667.5,360.555C661.45,359.868 656.343,359.431 656.15,359.585C655.495,360.111 658.241,367.483 661.655,374.365C667.362,385.87 678.398,398.68 684.65,401.057C689.788,403.01 721.538,404.167 738.913,403.034C761.037,401.592 779.193,398.78 782.332,396.311C792.123,388.609 802.683,370.056 805.567,357.38C806.278,354.253 805.534,361.867 805.429,353.695" style="fill:white;"/>
            </g>
            <g transform="matrix(0.905075,0.425253,0.425253,-0.905075,-268.638,1192.11)">
                <path d="M712.236,265.013C677.523,274.109 654.306,302.814 653.68,337.413L653.5,347.325L656.5,348.164C667.592,351.267 684.424,352.435 718.5,352.467C760.618,352.507 783.065,350.437 802,344.767L806.5,343.419L806.798,336.617C807.377,323.383 800.444,304.264 790.528,291.751C781.184,279.96 764.722,269.372 749.02,265.056C739.094,262.328 722.559,262.308 712.236,265.013M802.036,354.678C798.051,355.646 780.91,359.675 772,360.911C742.877,364.951 705.027,364.822 667.5,360.555C661.45,359.868 656.343,359.431 656.15,359.585C655.495,360.111 658.241,367.483 661.655,374.365C667.362,385.87 678.398,398.68 684.65,401.057C689.788,403.01 721.538,404.167 738.913,403.034C761.037,401.592 779.193,398.78 782.332,396.311C792.123,388.609 803.489,370.212 805.567,357.38C805.974,354.865 805.042,358.134 805.429,353.695" style="fill:white;"/>
            </g>
            <g transform="matrix(0.59764,0.801764,-0.801764,0.59764,950.63,-306.845)">
                <path d="M712.236,265.013C677.523,274.109 654.306,302.814 653.68,337.413L653.5,347.325L656.5,348.164C667.592,351.267 684.424,352.435 718.5,352.467C760.618,352.507 783.065,350.437 802,344.767L806.5,343.419L806.798,336.617C807.377,323.383 800.444,304.264 790.528,291.751C781.184,279.96 764.722,269.372 749.02,265.056C739.094,262.328 722.559,262.308 712.236,265.013M802.036,354.678C798.051,355.646 780.91,359.675 772,360.911C742.877,364.951 705.027,364.822 667.5,360.555C661.45,359.868 656.343,359.431 656.15,359.585C655.495,360.111 658.241,367.483 661.655,374.365C667.362,385.87 678.398,398.68 684.65,401.057C689.788,403.01 721.538,404.167 738.913,403.034C761.037,401.592 779.193,398.78 782.332,396.311C792.123,388.609 803.489,370.212 805.567,357.38C805.974,354.865 804.561,356.269 805.429,353.695" style="fill:white;"/>
            </g>
        </g>
    </g>
</svg>
