<?xml version="1.0" encoding="UTF-8" standalone="no"?>
<!DOCTYPE svg PUBLIC "-//W3C//DTD SVG 1.1//EN" "http://www.w3.org/Graphics/SVG/1.1/DTD/svg11.dtd">
<svg width="1500px" height="1500px" viewBox="0 0 1500 1500" version="1.1" xmlns="http://www.w3.org/2000/svg" xmlns:xlink="http://www.w3.org/1999/xlink" xml:space="preserve" xmlns:serif="http://www.serif.com/" style="fill-rule:evenodd;clip-rule:evenodd;stroke-linejoin:round;stroke-miterlimit:2;">
    <g>
        <g>
            <path d="M721.238,14.395C726.638,13.367 734.836,13.008 746.141,13.304C773.221,14.014 773.128,13.982 840.515,46.255C855.963,53.653 877.197,63.876 887.702,68.972C898.206,74.069 1223.48,230.762 1223.76,230.762C1224.03,230.762 1239.03,238.05 1257.09,246.958C1293.85,265.094 1302.84,271.178 1315.44,286.451C1332.33,306.925 1336.62,317.488 1347.13,364.524C1349.27,374.066 1354.32,396.281 1358.36,413.892C1362.41,431.502 1443.21,785.825 1448.78,809.924C1462.1,867.536 1462.75,871.459 1462.05,890.254C1461.33,909.428 1458.59,920.504 1450.51,936.879C1444.14,949.775 1438.68,957.634 1420.71,979.788C1408.98,994.244 1172.88,1290.39 1154.67,1313.25C1101.44,1380.07 1100.29,1381.49 1094.87,1386.95C1083.08,1398.83 1065.08,1410.2 1049.99,1415.33C1030.27,1422.02 1047.49,1421.67 741.219,1421.65C468.738,1421.63 460.482,1421.57 450.528,1419.47C430.959,1415.34 413.324,1406.62 396.999,1392.99C389.53,1386.75 379.865,1374.92 285.517,1256.51C250.009,1211.95 202.557,1152.49 116.953,1045.3C81.178,1000.5 49.016,959.817 45.481,954.895C29.926,933.23 23.171,912.159 23.171,885.306C23.171,868.408 22.881,870.004 37.766,804.868C43.403,780.202 123.005,431.649 123.751,428.358C128.424,407.734 135.058,378.473 138.49,363.334C148.006,321.368 152.32,309.825 164.734,293.116C181.17,270.993 191.455,264.177 250.993,235.945C261.943,230.753 561.92,86.379 597.839,68.986C617.431,59.498 622.914,56.866 670.305,34.186C699.274,20.322 708.079,16.899 721.238,14.395ZM723.597,91.674C711.885,93.903 704.048,96.949 678.263,109.289C636.081,129.476 631.201,131.819 613.763,140.264C581.792,155.745 314.789,284.249 305.043,288.871C252.049,313.999 242.895,320.066 228.265,339.757C217.216,354.63 213.376,364.904 204.906,402.257C201.851,415.732 195.947,441.776 191.787,460.133C191.123,463.063 120.271,773.302 115.254,795.257C102.005,853.233 102.263,851.812 102.263,866.853C102.263,890.754 108.276,909.509 122.121,928.792C125.267,933.173 153.894,969.382 185.737,1009.26C261.931,1104.67 304.167,1157.59 335.772,1197.26C419.749,1302.65 428.351,1313.18 434.999,1318.73C449.53,1330.86 465.226,1338.62 482.644,1342.3C491.504,1344.17 498.853,1344.23 741.382,1344.24C1013.99,1344.26 998.658,1344.57 1016.21,1338.61C1029.64,1334.05 1045.66,1323.92 1056.16,1313.35C1060.98,1308.5 1062.01,1307.24 1109.38,1247.76C1125.59,1227.41 1335.74,963.816 1346.18,950.949C1362.18,931.23 1367.04,924.235 1372.7,912.757C1379.9,898.182 1382.34,888.323 1382.98,871.257C1383.6,854.528 1383.02,851.036 1371.17,799.757C1366.21,778.307 1294.29,462.932 1290.69,447.257C1287.09,431.582 1282.59,411.809 1280.69,403.316C1271.34,361.45 1267.52,352.048 1252.48,333.825C1241.27,320.231 1233.26,314.816 1200.55,298.673C1184.48,290.744 1171.12,284.257 1170.88,284.257C1170.63,284.257 881.113,144.788 871.763,140.252C862.413,135.716 843.513,126.617 829.763,120.032C769.784,91.306 769.866,91.335 745.763,90.703C735.701,90.439 728.404,90.759 723.597,91.674Z" style="fill:white;"/>
        </g>
        <g transform="matrix(1.84909,0.937931,-0.937931,1.84909,-305.54,-628.783)">
            <g transform="matrix(1.09399,0.0273295,-0.0273295,1.09399,-42.9875,-183.149)">
                <path d="M712.236,265.013C677.523,274.109 654.306,302.814 653.68,337.413L653.5,347.325L656.5,348.164C667.592,351.267 684.424,352.435 718.5,352.467C760.618,352.507 783.065,350.437 802,344.767L806.5,343.419L806.798,336.617C807.377,323.383 800.444,304.264 790.528,291.751C781.184,279.96 764.722,269.372 749.02,265.056C739.094,262.328 722.559,262.308 712.236,265.013M802.036,354.678C798.051,355.646 780.91,359.675 772,360.911C742.877,364.951 705.027,364.822 667.5,360.555C661.45,359.868 656.343,359.431 656.15,359.585C655.495,360.111 658.241,367.483 661.655,374.365C667.362,385.87 678.398,398.68 684.65,401.057C689.788,403.01 721.538,404.167 738.913,403.034C761.037,401.592 779.193,398.78 782.332,396.311C792.123,388.609 803.489,370.212 805.567,357.38C805.974,354.865 805.138,358.054 805.429,353.695" style="fill:white;"/>
            </g>
            <g transform="matrix(1.26395,0.0315752,-0.0273295,1.09399,-166.623,-186.237)">
                <path d="M765.5,408.569C743.234,411.824 719.454,412.411 692.612,410.368L684.724,409.767C684.724,409.767 698.218,537.094 700.042,554.5C700.619,560 712.691,674.81 714.991,676.85C719.664,680.996 731.821,683.941 743.5,683.986C751.905,684.018 761.731,682.095 768.766,674.83C770.24,673.307 775.07,549.395 774.852,549.041C774.633,548.687 781.032,407 781.032,407C781.032,407 770.45,407.845 765.5,408.569" style="fill:white;"/>
            </g>
            <g transform="matrix(0.783906,-0.541768,0.434785,0.629109,-175.059,123.618)">
                <path d="M520.961,1173.64C523.219,1168.98 512.498,1193.38 505.328,1208.1C508.31,1213.85 508.188,1214.15 514.354,1216.64C524.062,1200.47 525.325,1198.68 535.51,1182.83" style="fill:white;"/>
            </g>
        </g>
    </g>
</svg>
