<?xml version="1.0" encoding="UTF-8" standalone="no"?>
<!DOCTYPE svg PUBLIC "-//W3C//DTD SVG 1.1//EN" "http://www.w3.org/Graphics/SVG/1.1/DTD/svg11.dtd">
<svg width="1500px" height="1500px" viewBox="0 0 1500 1500" version="1.1" xmlns="http://www.w3.org/2000/svg" xmlns:xlink="http://www.w3.org/1999/xlink" xml:space="preserve" xmlns:serif="http://www.serif.com/" style="fill-rule:evenodd;clip-rule:evenodd;stroke-linejoin:round;stroke-miterlimit:2;">
    <g>
        <g transform="matrix(1.1235,0,0,1.1235,-93.673,-97.2996)">
            <path d="M725.334,99.417C713.622,101.646 705.785,104.692 680,117.032C637.818,137.219 632.938,139.562 615.5,148.007C583.529,163.488 316.526,291.992 306.78,296.614C253.786,321.742 244.632,327.809 230.002,347.5C218.953,362.373 215.113,372.647 206.643,410C203.588,423.475 197.684,449.519 193.524,467.876C192.86,470.806 122.008,781.045 116.991,803C103.742,860.976 104,859.555 104,874.596C104,898.497 110.013,917.252 123.858,936.535C127.004,940.916 155.631,977.125 187.474,1017C263.668,1112.41 305.904,1165.34 337.509,1205C421.486,1310.39 430.088,1320.92 436.736,1326.47C451.267,1338.6 466.963,1346.37 484.381,1350.04C493.241,1351.91 500.59,1351.97 743.119,1351.98C1015.73,1352 1000.39,1352.32 1017.95,1346.36C1031.38,1341.8 1047.4,1331.67 1057.9,1321.1C1062.72,1316.24 1063.74,1314.98 1111.12,1255.5C1127.33,1235.15 1337.48,971.559 1347.92,958.692C1363.92,938.973 1368.78,931.978 1374.44,920.5C1381.64,905.925 1384.08,896.066 1384.71,879C1385.34,862.271 1384.76,858.779 1372.9,807.5C1367.94,786.05 1296.03,470.675 1292.42,455C1288.83,439.325 1284.33,419.552 1282.43,411.059C1273.07,369.193 1269.26,359.791 1254.22,341.568C1243,327.974 1235,322.559 1202.28,306.416C1186.21,298.487 1172.86,292 1172.61,292C1172.37,292 882.85,152.531 873.5,147.995C864.15,143.459 845.25,134.36 831.5,127.775C771.521,99.049 771.603,99.078 747.5,98.446C737.438,98.182 730.141,98.502 725.334,99.417" style="fill:white;"/>
        </g>
        <g transform="matrix(1,0,0,1,-1.737,-7.7428)">
            <path d="M725.334,99.417C713.622,101.646 705.785,104.692 680,117.032C637.818,137.219 632.938,139.562 615.5,148.007C583.529,163.488 316.526,291.992 306.78,296.614C253.786,321.742 244.632,327.809 230.002,347.5C218.953,362.373 215.113,372.647 206.643,410C203.588,423.475 197.684,449.519 193.524,467.876C192.86,470.806 122.008,781.045 116.991,803C103.742,860.976 104,859.555 104,874.596C104,898.497 110.013,917.252 123.858,936.535C127.004,940.916 155.631,977.125 187.474,1017C263.668,1112.41 305.904,1165.34 337.509,1205C421.486,1310.39 430.088,1320.92 436.736,1326.47C451.267,1338.6 466.963,1346.37 484.381,1350.04C493.241,1351.91 500.59,1351.97 743.119,1351.98C1015.73,1352 1000.39,1352.32 1017.95,1346.36C1031.38,1341.8 1047.4,1331.67 1057.9,1321.1C1062.72,1316.24 1063.74,1314.98 1111.12,1255.5C1127.33,1235.15 1337.48,971.559 1347.92,958.692C1363.92,938.973 1368.78,931.978 1374.44,920.5C1381.64,905.925 1384.08,896.066 1384.71,879C1385.34,862.271 1384.76,858.779 1372.9,807.5C1367.94,786.05 1296.03,470.675 1292.42,455C1288.83,439.325 1284.33,419.552 1282.43,411.059C1273.07,369.193 1269.26,359.791 1254.22,341.568C1243,327.974 1235,322.559 1202.28,306.416C1186.21,298.487 1172.86,292 1172.61,292C1172.37,292 882.85,152.531 873.5,147.995C864.15,143.459 845.25,134.36 831.5,127.775C771.521,99.049 771.603,99.078 747.5,98.446C737.438,98.182 730.141,98.502 725.334,99.417" style="fill:rgb(52,108,233);"/>
        </g>
    </g>
    <g transform="matrix(1.84909,0.937931,-0.937931,1.84909,-305.54,-628.783)">
        <g transform="matrix(1.09399,0.0273295,-0.0273295,1.09399,-42.9875,-183.149)">
            <path d="M712.236,265.013C677.523,274.109 654.306,302.814 653.68,337.413L653.5,347.325L656.5,348.164C667.592,351.267 684.424,352.435 718.5,352.467C760.618,352.507 783.065,350.437 802,344.767L806.5,343.419L806.798,336.617C807.377,323.383 800.444,304.264 790.528,291.751C781.184,279.96 764.722,269.372 749.02,265.056C739.094,262.328 722.559,262.308 712.236,265.013M802.036,354.678C798.051,355.646 780.91,359.675 772,360.911C742.877,364.951 705.027,364.822 667.5,360.555C661.45,359.868 656.343,359.431 656.15,359.585C655.495,360.111 658.241,367.483 661.655,374.365C667.362,385.87 678.398,398.68 684.65,401.057C689.788,403.01 721.538,404.167 738.913,403.034C761.037,401.592 779.193,398.78 782.332,396.311C792.123,388.609 803.489,370.212 805.567,357.38C805.974,354.865 805.138,358.054 805.429,353.695" style="fill:white;stroke:rgb(52,108,233);stroke-width:3.09px;"/>
        </g>
        <g transform="matrix(1.26395,0.0315752,-0.0273295,1.09399,-166.623,-186.237)">
            <path d="M765.5,408.569C743.234,411.824 719.454,412.411 692.612,410.368L684.724,409.767C684.724,409.767 698.218,537.094 700.042,554.5C700.619,560 712.691,674.81 714.991,676.85C719.664,680.996 731.821,683.941 743.5,683.986C751.905,684.018 761.731,682.095 768.766,674.83C770.24,673.307 775.07,549.395 774.852,549.041C774.633,548.687 781.032,407 781.032,407C781.032,407 770.45,407.845 765.5,408.569" style="fill:white;stroke:rgb(52,108,233);stroke-width:8.16px;"/>
        </g>
        <g transform="matrix(0.783906,-0.541768,0.434785,0.629109,-175.059,123.618)">
            <path d="M520.961,1173.64C523.219,1168.98 512.498,1193.38 505.328,1208.1C508.31,1213.85 508.188,1214.15 514.354,1216.64C524.062,1200.47 525.325,1198.68 535.51,1182.83" style="fill:white;"/>
        </g>
    </g>
</svg>
